<?xml version="1.0" standalone="no"?>
<!DOCTYPE svg PUBLIC "-//W3C//DTD SVG 20010904//EN"
 "http://www.w3.org/TR/2001/REC-SVG-20010904/DTD/svg10.dtd">
<svg version="1.0" xmlns="http://www.w3.org/2000/svg"
 width="1024.000000pt" height="1024.000000pt" viewBox="0 0 1024.000000 1024.000000"
 preserveAspectRatio="xMidYMid meet">
<metadata>
Created by potrace 1.11, written by Peter Selinger 2001-2013
</metadata>
<g transform="translate(0.000000,1024.000000) scale(0.100000,-0.100000)"
fill="#000000" stroke="none">
<path d="M1065 10224 c-480 -85 -876 -437 -1013 -899 -55 -184 -52 23 -52
-3489 l1 -3241 1599 1604 1600 1603 0 1322 1 1321 1867 -1873 1867 -1873 1653
1653 1652 1653 0 536 c0 570 -3 621 -52 784 -121 409 -454 742 -864 864 -181
54 81 51 -4213 50 -3375 -1 -3978 -3 -4046 -15z"/>
<path d="M8640 5907 l-1595 -1600 -5 -1262 -5 -1263 -1845 1834 -1845 1833
-1672 -1672 -1673 -1672 0 -471 c0 -500 4 -559 52 -719 121 -409 454 -742 864
-864 181 -54 -79 -51 4204 -51 4283 0 4023 -3 4204 51 200 60 394 176 542 325
192 193 315 433 358 699 15 91 16 378 14 3266 l-3 3165 -1595 -1599z"/>
</g>
</svg>
